# Blender v2.79 (sub 0) OBJ File: 'exclusive_skins_statue.blend'
# www.blender.org
mtllib exclusive_skins_statue.mtl
o Player_Cube
v -0.261837 0.210351 0.055684
v -0.261837 0.210477 -0.206816
v -0.261837 0.997977 -0.206437
v -0.261828 0.735376 0.060430
v -0.261868 0.735382 -0.202070
v -0.524368 0.210383 -0.202043
v -0.524328 0.210376 0.060457
v -0.261868 0.210383 -0.202083
v -0.261837 -0.577122 -0.203888
v -0.261837 0.210379 0.058612
v -0.261837 0.210379 -0.203888
v -0.262005 0.997881 0.192876
v 0.263163 0.210351 0.055684
v 0.263163 0.997851 0.056063
v 0.263193 0.210383 -0.202083
v 0.000663 -0.577122 0.058612
v 0.000663 0.210378 -0.203888
v 0.262995 0.997875 0.193002
v 0.000663 0.210378 0.058612
v -0.286867 1.547879 -0.357132
v 0.263163 0.997977 -0.206437
v 0.263163 0.997977 -0.206437
v 0.263163 0.210351 0.055684
v 0.263163 0.210477 -0.206816
v 0.263163 0.210477 -0.206816
v -0.261837 0.997851 0.056063
v -0.261837 0.997851 0.056063
v -0.261837 0.210351 0.055684
v -0.261837 0.997977 -0.206437
v -0.261837 0.210477 -0.206816
v -0.524368 0.735382 -0.202030
v -0.261828 0.210376 0.060417
v -0.524328 0.735376 0.060470
v 0.000663 -0.577122 -0.203888
v -0.261837 -0.577122 0.058612
v 0.263126 1.522872 -0.332000
v 0.263000 1.522875 0.193000
v 0.263121 0.997873 -0.331997
v -0.262000 1.522880 0.192874
v -0.261874 1.522878 -0.332126
v -0.261879 0.997878 -0.332124
v 0.263193 0.735382 -0.202070
v 0.263153 0.735376 0.060430
v 0.263153 0.210376 0.060417
v 0.525653 0.735376 0.060470
v 0.525653 0.210376 0.060457
v 0.525693 0.735382 -0.202030
v 0.525693 0.210383 -0.202043
v 0.000663 0.210378 0.058612
v 0.263163 0.210379 0.058612
v 0.000663 -0.577122 0.058612
v 0.263163 -0.577122 0.058612
v 0.000663 -0.577122 -0.203888
v 0.263163 -0.577122 -0.203888
v 0.263163 0.210379 -0.203888
v 0.000663 0.210378 -0.203888
v 0.288133 1.547873 -0.356994
v 0.287994 1.547875 0.218006
v 0.287988 0.972875 0.218009
v 0.288126 0.972873 -0.356991
v -0.287005 1.547881 0.217868
v -0.287012 0.972881 0.217870
v -0.286873 0.972879 -0.357129
v 0.263163 0.735351 0.055936
v 0.263163 0.997851 0.056063
v -0.261837 0.735477 -0.206564
v -0.261837 0.735351 0.055936
v 0.263163 0.735477 -0.206564
v 0.525663 0.997977 -0.206437
v 0.525663 0.997851 0.056063
v -0.524337 0.997851 0.056063
v -0.524337 0.997977 -0.206437
v 0.000663 0.210351 0.055684
v 0.000663 0.210477 -0.206816
v -0.575816 -0.577122 0.215601
v -0.575816 -0.577122 -0.360878
v 0.000663 -0.577122 -0.360878
v 0.000663 -0.577122 0.215601
v 0.000663 -0.577122 0.215601
v 0.577142 -0.577122 0.215601
v 0.577142 -0.577122 -0.360878
v 0.000663 -0.577122 -0.360878
v 0.472482 -0.314622 0.163271
v 0.000663 -0.314622 0.163271
v -0.471157 -0.314622 0.163271
v 0.000663 -0.314622 0.163271
v 0.472482 -0.314622 -0.308548
v 0.000663 -0.314622 -0.308548
v -0.471157 -0.314622 -0.308548
v 0.000663 -0.314622 -0.308548
v -0.261837 0.210379 -0.028888
v -0.261837 0.210379 -0.116388
v 0.263163 0.210379 -0.028888
v 0.263163 0.210379 -0.116388
v -0.086837 0.210378 0.058612
v -0.174337 0.210379 0.058612
v 0.088163 0.210378 0.058612
v 0.175663 0.210379 0.058612
v -0.174337 0.210378 -0.203888
v -0.086837 0.210378 -0.203888
v 0.175663 0.210378 -0.203888
v 0.088163 0.210378 -0.203888
v -0.460521 -0.577122 0.004226
v -0.460521 -0.577122 -0.149502
v 0.461846 -0.577122 0.004226
v 0.461846 -0.577122 -0.149502
v -0.153065 -0.577122 0.157953
v -0.306793 -0.577122 0.157953
v 0.154390 -0.577122 0.157953
v 0.308118 -0.577122 0.157953
v -0.306793 -0.577122 -0.303230
v -0.153065 -0.577122 -0.303230
v 0.308118 -0.577122 -0.303230
v 0.154390 -0.577122 -0.303230
v 0.378118 -0.314622 -0.135548
v 0.378118 -0.314622 -0.009729
v -0.250974 -0.314622 -0.261366
v -0.125156 -0.314622 -0.261366
v -0.376793 -0.314622 -0.009729
v -0.376793 -0.314622 -0.135548
v 0.126481 -0.314622 -0.261366
v 0.252300 -0.314622 -0.261366
v -0.125156 -0.314622 0.116089
v -0.250974 -0.314622 0.116089
v 0.126481 -0.314622 0.116089
v 0.252300 -0.314622 0.116089
v -0.242227 0.153943 0.101207
v -0.242692 0.997692 0.101613
v 0.257773 0.154218 0.101207
v 0.257308 0.997968 0.101613
v 0.257308 0.997990 0.056063
v 0.257773 0.154240 0.055657
v -0.242227 0.153965 0.055657
v -0.242692 0.997714 0.056062
v 0.257308 0.997968 0.101613
v 0.257308 0.997968 0.101613
v 0.257773 0.154218 0.101207
v 0.257773 0.154218 0.101207
v -0.242692 0.997692 0.101613
v -0.242692 0.997692 0.101613
v -0.242227 0.153943 0.101207
v -0.242227 0.153943 0.101207
v 0.257308 0.997990 0.056063
v 0.257308 0.997990 0.056063
v 0.257773 0.154240 0.055657
v 0.257773 0.154240 0.055657
v -0.242227 0.153965 0.055657
v -0.242227 0.153965 0.055657
v -0.242692 0.997714 0.056062
v -0.242692 0.997714 0.056062
vt 0.625000 0.375000
vt 0.500000 0.375000
vt 0.500000 0.000000
vt 0.562500 0.000000
vt 0.625000 0.000000
vt 0.250000 0.250000
vt 0.250000 0.000000
vt 0.312500 0.000000
vt 0.312500 0.250000
vt 0.437500 0.375000
vt 0.312500 0.375000
vt 0.312500 0.000000
vt 0.375000 0.000000
vt 0.437500 0.000000
vt 0.500000 0.375000
vt 0.500000 0.500000
vt 0.437500 0.500000
vt 0.437500 0.375000
vt 0.437500 0.500000
vt 0.312500 0.500000
vt 0.125000 0.375000
vt 0.125000 0.000000
vt 0.187500 0.000000
vt 0.187500 0.375000
vt 0.812500 0.250000
vt 0.875000 0.250000
vt 0.875000 0.000000
vt 0.812500 0.000000
vt 0.750000 0.250000
vt 0.750000 0.000000
vt 0.187500 0.375000
vt 0.187500 0.500000
vt 0.125000 0.500000
vt 0.125000 0.375000
vt 0.000000 0.375000
vt 0.015625 0.375000
vt 0.046875 0.375000
vt 0.062500 0.375000
vt 0.062500 0.000000
vt 0.000000 0.000000
vt 0.500000 0.750000
vt 0.375000 0.750000
vt 0.375000 0.500000
vt 0.500000 0.500000
vt 0.250000 0.750000
vt 0.250000 0.500000
vt 0.125000 0.750000
vt 0.125000 0.500000
vt 0.375000 0.750000
vt 0.375000 1.000000
vt 0.250000 1.000000
vt 0.250000 0.750000
vt 0.250000 1.000000
vt 0.125000 1.000000
vt 0.187500 0.375000
vt 0.203125 0.375000
vt 0.234375 0.375000
vt 0.250000 0.375000
vt 0.250000 0.000000
vt 0.187500 0.000000
vt 0.062500 0.375000
vt 0.062500 0.000000
vt 0.109375 0.375000
vt 0.078125 0.375000
vt 0.078125 0.375000
vt 0.109375 0.375000
vt 0.125000 0.375000
vt 0.125000 0.000000
vt 0.750000 0.375000
vt 0.812500 0.375000
vt 0.812500 0.500000
vt 0.750000 0.500000
vt 0.250000 0.000000
vt 0.250000 0.375000
vt 0.234375 0.375000
vt 0.203125 0.375000
vt 0.000000 0.375000
vt 0.000000 0.000000
vt 0.046875 0.375000
vt 0.015625 0.375000
vt 0.687500 0.375000
vt 0.625000 0.375000
vt 0.625000 0.250000
vt 0.687500 0.250000
vt 0.000000 0.750000
vt 0.000000 0.500000
vt 0.125000 0.375000
vt 0.125000 0.406250
vt 0.109375 0.375000
vt 0.687500 0.250000
vt 0.687500 0.000000
vt 0.625000 0.250000
vt 0.625000 0.000000
vt 0.625000 0.250000
vt 0.625000 0.000000
vt 0.687500 0.000000
vt 0.687500 0.250000
vt 0.750000 0.000000
vt 0.750000 0.250000
vt 0.187500 0.375000
vt 0.125000 0.375000
vt 0.125000 0.500000
vt 0.187500 0.500000
vt 0.812500 0.000000
vt 0.812500 0.250000
vt 0.750000 0.375000
vt 0.750000 0.500000
vt 0.812500 0.500000
vt 0.812500 0.375000
vt 0.875000 0.000000
vt 0.875000 0.250000
vt 0.125000 0.468750
vt 0.109375 0.500000
vt 0.125000 0.500000
vt 1.000000 0.750000
vt 0.875000 0.750000
vt 0.875000 0.500000
vt 1.000000 0.500000
vt 0.750000 0.750000
vt 0.750000 0.500000
vt 0.625000 0.750000
vt 0.625000 0.500000
vt 0.875000 0.750000
vt 0.875000 1.000000
vt 0.750000 1.000000
vt 0.750000 0.750000
vt 0.750000 1.000000
vt 0.625000 1.000000
vt 0.500000 0.750000
vt 0.500000 0.500000
vt 0.500000 0.250000
vt 0.437500 0.250000
vt 0.437500 0.000000
vt 0.500000 0.000000
vt 0.687500 0.375000
vt 0.750000 0.375000
vt 0.750000 0.250000
vt 0.750000 0.500000
vt 0.687500 0.500000
vt 0.687500 0.375000
vt 0.750000 0.375000
vt 0.812500 0.250000
vt 0.875000 0.375000
vt 0.812500 0.375000
vt 0.625000 0.375000
vt 0.687500 0.375000
vt 0.687500 0.375000
vt 0.750000 0.500000
vt 0.687500 0.500000
vt 0.750000 0.250000
vt 0.750000 0.375000
vt 0.875000 0.375000
vt 0.812500 0.375000
vt 0.812500 0.250000
vt 0.562500 0.375000
vt 0.562500 0.500000
vt 0.062500 0.500000
vt 0.125000 0.500000
vt 0.125000 0.375000
vt 0.062500 0.375000
vt 0.562500 0.500000
vt 0.562500 0.468750
vt 0.562500 0.406250
vt 0.562500 0.375000
vt 0.500000 0.375000
vt 0.562500 0.375000
vt 0.500000 0.375000
vt 0.500000 0.500000
vt 0.562500 0.500000
vt 0.562500 0.468750
vt 0.562500 0.406250
vt 0.562500 0.375000
vt 0.500000 0.500000
vt 0.562500 0.500000
vt 0.562500 0.468750
vt 0.562500 0.406250
vt 0.437500 0.375000
vt 0.437500 0.500000
vt 0.500000 0.500000
vt 0.500000 0.468750
vt 0.500000 0.406250
vt 0.500000 0.375000
vt 0.125000 0.375000
vt 0.125000 0.500000
vt 0.500000 0.375000
vt 0.500000 0.500000
vt 0.437500 0.500000
vt 0.437500 0.468750
vt 0.437500 0.406250
vt 0.437500 0.375000
vt 0.500000 0.500000
vt 0.437500 0.500000
vt 0.437500 0.375000
vt 0.500000 0.375000
vt 0.500000 0.406250
vt 0.500000 0.468750
vt 0.437500 0.375000
vt 0.437500 0.500000
vt 0.562500 0.500000
vt 0.562500 0.375000
vt 0.292969 0.500000
vt 0.312500 0.500000
vt 0.312500 0.375000
vt 0.292969 0.375000
vt 0.292969 0.500000
vt 0.312500 0.500000
vt 0.312500 0.375000
vt 0.292969 0.375000
vt 0.644531 0.500000
vt 0.625000 0.500000
vt 0.625000 0.375000
vt 0.644531 0.375000
vt 0.605469 0.500000
vt 0.625000 0.500000
vt 0.625000 0.375000
vt 0.605469 0.375000
vt 0.667969 0.500000
vt 0.687500 0.500000
vt 0.687500 0.375000
vt 0.667969 0.375000
vt 0.582031 0.500000
vt 0.562500 0.500000
vt 0.562500 0.375000
vt 0.582031 0.375000
vt 0.250000 0.500000
vt 0.187500 0.500000
vt 0.187500 0.375000
vt 0.250000 0.375000
vt 0.250000 0.500000
vt 0.250000 0.375000
vt 0.187500 0.375000
vt 0.187500 0.500000
vt 0.437500 1.000000
vt 0.375000 1.000000
vt 0.375000 0.750000
vt 0.437500 0.750000
vt 0.521484 1.000000
vt 0.500000 1.000000
vt 0.500000 0.750000
vt 0.521484 0.750000
vt 0.605469 1.000000
vt 0.625000 1.000000
vt 0.625000 0.750000
vt 0.605469 0.750000
vt 0.542969 1.000000
vt 0.562500 1.000000
vt 0.562500 0.750000
vt 0.542969 0.750000
vt 0.583984 1.000000
vt 0.562500 1.000000
vt 0.562500 0.750000
vt 0.583984 0.750000
vt 0.480469 1.000000
vt 0.500000 1.000000
vt 0.500000 0.750000
vt 0.480469 0.750000
vt 0.480469 1.000000
vt 0.500000 1.000000
vt 0.500000 0.750000
vt 0.480469 0.750000
vt 0.437500 1.000000
vt 0.437500 0.750000
vt 0.375000 0.750000
vt 0.375000 1.000000
vt 0.437500 1.000000
vt 0.458984 1.000000
vt 0.458984 0.750000
vt 0.437500 0.750000
vt 0.437500 1.000000
vt 0.458984 1.000000
vt 0.458984 0.750000
vt 0.437500 0.750000
vt 0.625000 1.000000
vt 0.605469 1.000000
vt 0.605469 0.750000
vt 0.625000 0.750000
vt 0.500000 1.000000
vt 0.521484 1.000000
vt 0.521484 0.750000
vt 0.500000 0.750000
vt 0.562500 1.000000
vt 0.583984 1.000000
vt 0.583984 0.750000
vt 0.562500 0.750000
vt 0.562500 1.000000
vt 0.542969 1.000000
vt 0.542969 0.750000
vt 0.562500 0.750000
vt 0.625000 0.500000
vt 0.605469 0.500000
vt 0.605469 0.375000
vt 0.625000 0.375000
vt 0.625000 0.500000
vt 0.644531 0.500000
vt 0.644531 0.375000
vt 0.625000 0.375000
vt 0.562500 0.500000
vt 0.582031 0.500000
vt 0.582031 0.375000
vt 0.562500 0.375000
vt 0.687500 0.500000
vt 0.667969 0.500000
vt 0.667969 0.375000
vt 0.687500 0.375000
vt 0.250000 0.500000
vt 0.269531 0.500000
vt 0.269531 0.375000
vt 0.250000 0.375000
vt 0.250000 0.500000
vt 0.269531 0.500000
vt 0.269531 0.375000
vt 0.250000 0.375000
vt 0.125000 0.406250
vt 0.109375 0.375000
vt 0.125000 0.375000
vt 0.078125 0.375000
vt 0.062500 0.375000
vt 0.062500 0.500000
vt 0.078125 0.500000
vt 0.125000 0.468750
vt 0.109375 0.500000
vt 0.125000 0.500000
vt 0.078125 0.375000
vt 0.078125 0.500000
vt 0.062500 0.500000
vt 0.062500 0.375000
vt 0.812500 0.375000
vt 0.750000 0.375000
vt 0.812500 0.375000
vt 0.750000 0.375000
vt 1.000000 0.375000
vt 0.875000 0.375000
vt 0.875000 0.000000
vt 1.000000 0.000000
vt 1.000000 0.375000
vt 1.000000 0.000000
vt 0.875000 0.000000
vt 0.875000 0.375000
vt 0.875000 0.375000
vt 1.000000 0.375000
vt 1.000000 0.343750
vt 0.875000 0.343750
vt 1.000000 0.375000
vt 1.000000 0.000000
vt 0.984375 0.000000
vt 0.984375 0.375000
vt 0.875000 0.000000
vt 0.875000 0.375000
vt 0.890625 0.375000
vt 0.890625 0.000000
vt 1.000000 0.000000
vt 0.875000 0.000000
vt 0.875000 0.031250
vt 1.000000 0.031250
vn -0.0000 -0.0005 1.0000
vn 1.0000 -0.0000 0.0000
vn 0.0000 0.0005 -1.0000
vn 0.0000 -1.0000 -0.0005
vn -0.0000 1.0000 0.0005
vn -1.0000 -0.0000 -0.0000
vn 0.0002 -0.0000 1.0000
vn 1.0000 0.0000 -0.0002
vn -0.0000 -1.0000 0.0000
vn -0.0002 0.0000 1.0000
vn -1.0000 0.0000 -0.0002
vn 0.0002 -0.0000 -1.0000
vn 0.0000 1.0000 -0.0000
vn 0.0000 0.0000 1.0000
vn -0.0000 0.0000 -1.0000
vn 1.0000 -0.0000 -0.0001
vn 1.0000 -0.0000 0.0002
vn -0.0002 0.0000 -1.0000
vn -1.0000 0.0000 0.0002
vn -0.0086 -0.0167 -0.9998
vn -0.0086 0.0167 0.9998
vn -1.0000 -0.0000 -0.0001
vn 0.0086 -0.0167 -0.9998
vn -1.0000 -0.0034 -0.0000
vn -0.0000 -1.0000 0.0092
vn 0.0000 0.9994 0.0339
vn -0.0000 1.0000 -0.0092
vn 1.0000 -0.0001 -0.0000
vn -1.0000 -0.0012 -0.0000
vn 0.0000 -0.9994 -0.0339
vn 0.0000 1.0000 -0.0091
vn 0.3452 0.1835 0.9204
vn 0.3452 -0.1835 -0.9204
vn -0.3452 -0.1835 0.9204
vn 0.8508 -0.2467 0.4641
vn -0.2082 -0.1107 0.9718
vn -0.8508 -0.2467 -0.4641
vn 0.0000 0.1955 0.9807
vn 0.0000 0.1954 -0.9807
vn 0.0000 0.1954 0.9807
vn -0.9121 -0.2427 -0.3304
vn -0.1506 -0.1107 0.9824
vn 0.9121 -0.2427 0.3304
vn -0.2133 -0.1567 0.9643
vn 0.2133 -0.1567 -0.9643
vn 0.2133 0.1567 0.9643
vn 0.0000 0.1955 -0.9807
vn -0.1506 0.1107 0.9824
vn -0.0000 0.1088 0.9941
vn -0.1506 -0.1107 -0.9824
vn -0.0000 -0.1088 -0.9941
vn 0.1506 -0.1107 0.9824
vn 0.0000 -0.1088 0.9941
vn 0.9121 -0.2427 -0.3304
vn 0.9769 -0.2139 0.0000
vn 0.2133 -0.1567 0.9643
vn -0.9121 -0.2427 0.3304
vn -0.9769 -0.2139 0.0000
vn -0.8508 -0.2467 0.4641
vn -0.9527 -0.3039 0.0000
vn 0.3452 -0.1835 0.9204
vn -0.0000 -0.1575 0.9875
vn 0.8508 -0.2467 -0.4641
vn 0.9527 -0.3039 0.0000
vn 0.2082 -0.1107 0.9718
vn -0.2082 -0.1107 -0.9718
vn -0.0000 -0.1575 -0.9875
vn -0.2082 0.1107 0.9718
vn -0.0000 0.1575 0.9875
vn -0.9535 -0.3014 -0.0001
vn 0.9537 -0.3009 -0.0001
vn -0.0006 1.0000 0.0005
vn 1.0000 0.0006 0.0000
vn -1.0000 -0.0006 -0.0000
vn 0.0006 -1.0000 -0.0005
usemtl Character
s off
f 14/1/1 27/2/1 1/3/1 73/4/1 13/5/1
f 64/6/2 23/7/2 25/8/2 68/9/2
f 29/10/3 21/11/3 24/12/3 74/13/3 30/14/3
f 74/15/4 73/16/4 1/17/4 30/18/4
f 29/10/5 27/19/5 14/20/5 21/11/5
f 56/21/6 53/22/6 51/23/6 19/24/6
f 4/25/7 33/26/7 7/27/7 32/28/7
f 5/29/8 4/25/8 32/28/8 8/30/8
f 34/31/9 16/32/9 35/33/9 9/34/9
f 10/35/6 91/36/6 92/37/6 11/38/6 9/39/6 35/40/6
f 37/41/10 39/42/10 12/43/10 18/44/10
f 39/42/11 40/45/11 41/46/11 12/43/11
f 40/45/12 36/47/12 38/48/12 41/46/12
f 38/49/9 18/50/9 12/51/9 41/52/9
f 40/45/13 39/53/13 37/54/13 36/47/13
f 49/55/14 95/56/14 96/57/14 10/58/14 35/59/14 16/60/14
f 55/61/15 54/62/15 53/22/15 56/21/15 102/63/15 101/64/15
f 11/38/15 99/65/15 100/66/15 17/67/15 34/68/15 9/39/15
f 15/69/9 48/70/9 46/71/9 44/72/9
f 19/24/14 51/23/14 52/73/14 50/74/14 98/75/14 97/76/14
f 17/67/2 49/55/2 16/60/2 34/68/2
f 50/77/2 52/78/2 54/62/2 55/61/2 94/79/2 93/80/2
f 31/81/16 72/82/16 71/83/16 33/84/16
f 37/85/17 18/86/17 38/48/17 36/47/17
f 11/87/13 92/88/13 99/89/13
f 31/90/18 5/29/18 8/30/18 6/91/18
f 33/92/19 31/90/19 6/91/19 7/93/19
f 45/94/17 46/95/17 48/96/17 47/97/17
f 47/97/12 48/96/12 15/98/12 42/99/12
f 53/100/9 54/101/9 52/102/9 51/103/9
f 42/99/11 15/98/11 44/104/11 43/105/11
f 8/106/9 32/107/9 7/108/9 6/109/9
f 43/105/10 44/104/10 46/110/10 45/111/10
f 93/112/13 98/113/13 50/114/13
f 58/115/10 61/116/10 62/117/10 59/118/10
f 61/116/11 20/119/11 63/120/11 62/117/11
f 20/119/12 57/121/12 60/122/12 63/120/12
f 60/123/9 59/124/9 62/125/9 63/126/9
f 20/119/13 61/127/13 58/128/13 57/121/13
f 58/129/17 59/130/17 60/122/17 57/121/17
f 67/131/6 66/132/6 2/133/6 28/134/6
f 5/29/20 31/90/20 72/135/20 3/136/20 66/137/20
f 22/138/5 65/139/5 70/140/5 69/141/5
f 64/142/21 43/105/21 45/111/21 70/143/21 65/144/21
f 45/94/22 70/145/22 69/146/22 47/97/22
f 26/147/5 3/136/5 72/148/5 71/149/5
f 68/150/23 22/151/23 69/146/23 47/97/23 42/99/23
f 4/25/20 33/26/20 71/152/20 26/153/20 67/154/20
f 24/155/4 13/156/4 73/16/4 74/15/4
f 74/157/24 17/158/24 49/159/24 73/160/24
f 49/161/25 95/162/25 96/163/25 10/164/25 1/165/25 73/16/25
f 11/166/2 30/167/2 1/168/2 10/169/2 91/170/2 92/171/2
f 17/172/26 74/15/26 30/173/26 11/174/26 99/175/26 100/176/26
f 13/177/27 73/178/27 19/179/27 97/180/27 98/181/27 50/182/27
f 19/183/28 56/184/28 74/157/28 73/160/28
f 24/185/26 74/186/26 56/187/26 102/188/26 101/189/26 55/190/26
f 50/191/29 13/192/29 24/193/29 55/194/29 94/195/29 93/196/29
f 56/197/30 74/15/30 17/198/30
f 73/16/31 19/199/31 49/200/31
f 125/201/32 84/202/32 78/203/32 109/204/32
f 123/205/33 86/206/33 79/207/33 107/208/33
f 121/209/34 88/210/34 82/211/34 114/212/34
f 119/213/35 85/214/35 75/215/35 103/216/35
f 117/217/36 89/218/36 76/219/36 111/220/36
f 115/221/37 87/222/37 81/223/37 106/224/37
f 86/225/38 84/226/38 78/227/38 79/228/38
f 90/229/39 77/230/39 82/231/39 88/232/39
f 49/233/40 19/234/40 84/235/40 86/236/40
f 94/237/41 55/238/41 87/239/41 115/240/41
f 99/241/42 11/242/42 89/243/42 117/244/42
f 91/245/43 10/246/43 85/247/43 119/248/43
f 102/249/44 56/250/44 88/251/44 121/252/44
f 95/253/45 49/254/45 86/255/45 123/256/45
f 97/257/46 19/258/46 84/259/46 125/260/46
f 17/261/47 90/262/47 88/263/47 56/264/47
f 50/265/48 98/266/48 126/267/48 83/268/48
f 98/266/49 97/257/49 125/260/49 126/267/49
f 10/269/50 96/270/50 124/271/50 85/272/50
f 96/270/51 95/253/51 123/256/51 124/271/51
f 55/273/52 101/274/52 122/275/52 87/276/52
f 101/274/53 102/249/53 121/252/53 122/275/53
f 11/277/54 92/278/54 120/279/54 89/280/54
f 92/278/55 91/245/55 119/248/55 120/279/55
f 17/281/56 100/282/56 118/283/56 90/284/56
f 100/282/53 99/241/53 117/244/53 118/283/53
f 50/285/57 93/286/57 116/287/57 83/288/57
f 93/286/58 94/237/58 115/240/58 116/287/58
f 83/289/59 116/290/59 105/291/59 80/292/59
f 116/290/60 115/221/60 106/224/60 105/291/60
f 90/293/61 118/294/61 112/295/61 77/296/61
f 118/294/62 117/217/62 111/220/62 112/295/62
f 89/297/63 120/298/63 104/299/63 76/300/63
f 120/298/64 119/213/64 103/216/64 104/299/64
f 87/301/65 122/302/65 113/303/65 81/304/65
f 122/302/62 121/209/62 114/212/62 113/303/62
f 85/305/66 124/306/66 108/307/66 75/308/66
f 124/306/67 123/205/67 107/208/67 108/307/67
f 83/309/68 126/310/68 110/311/68 80/312/68
f 126/310/69 125/201/69 109/204/69 110/311/69
f 94/313/13 101/314/13 98/113/13 93/112/13
f 55/315/13 101/314/13 94/313/13
f 102/316/13 56/317/13 19/318/13 97/319/13
f 101/314/13 102/316/13 97/319/13 98/113/13
f 92/88/13 91/320/13 96/321/13 99/89/13
f 91/320/13 10/322/13 96/321/13
f 100/323/13 95/324/13 49/325/13 17/326/13
f 99/89/13 96/321/13 95/324/13 100/323/13
f 64/327/70 68/328/70 42/99/70 43/105/70
f 67/329/71 4/25/71 5/29/71 66/330/71
usemtl Character.001
f 130/331/1 128/332/1 127/333/1 129/334/1
f 131/335/3 132/336/3 133/337/3 134/338/3
f 139/339/72 135/340/72 143/341/72 149/342/72
f 136/343/73 137/344/73 145/345/73 144/346/73
f 141/347/74 140/348/74 150/349/74 147/350/74
f 138/351/75 142/352/75 148/353/75 146/354/75
